<svg width="10" height="12" viewBox="0 0 12 12" fill="none" xmlns="http://www.w3.org/2000/svg">
<path d="M10.8547 4.16434L7.70713 3.62479L6.30008 0.260276C6.26165 0.168158 6.19842 0.0935859 6.12032 0.0482578C5.92445 -0.0657934 5.68643 0.0292493 5.58849 0.260276L4.18144 3.62479L1.03387 4.16434C0.947088 4.17896 0.867748 4.22721 0.807003 4.30032C0.733565 4.38935 0.693098 4.50912 0.694493 4.63332C0.695888 4.75752 0.73903 4.87599 0.814441 4.96269L3.09175 7.58149L2.55373 11.2794C2.54111 11.3654 2.54918 11.4539 2.57702 11.5348C2.60487 11.6156 2.65137 11.6857 2.71125 11.737C2.77114 11.7883 2.84201 11.8188 2.91584 11.825C2.98967 11.8312 3.06349 11.8129 3.12895 11.7721L5.94428 10.0263L8.75963 11.7721C8.83649 11.8204 8.92574 11.8365 9.01128 11.8189C9.22699 11.7751 9.37203 11.5338 9.33484 11.2794L8.79682 7.58149L11.0741 4.96269C11.1361 4.89105 11.177 4.79747 11.1894 4.69511C11.2229 4.43923 11.0717 4.20235 10.8547 4.16434Z" fill="#FC8B40"/>
</svg>
