<svg width="11" height="12" viewBox="0 0 12 12" fill="none" xmlns="http://www.w3.org/2000/svg">
<path d="M2.11365 11.1023C2.09509 11.1891 2.09476 11.2793 2.11267 11.3662C2.13059 11.4531 2.16629 11.5344 2.21709 11.6041C2.2679 11.6738 2.3325 11.7301 2.40605 11.7686C2.47959 11.8072 2.56018 11.8271 2.64176 11.8268C2.74876 11.8268 2.85336 11.7922 2.94238 11.7274L5.89169 9.58074L8.841 11.7274C8.93327 11.7943 9.04208 11.8287 9.1528 11.8261C9.26352 11.8234 9.37084 11.7838 9.46033 11.7126C9.54982 11.6414 9.61718 11.5419 9.65336 11.4276C9.68954 11.3134 9.6928 11.1897 9.66269 11.0734L8.67201 7.28859L11.129 4.87462C11.2076 4.79726 11.2638 4.69642 11.2906 4.58456C11.3173 4.4727 11.3135 4.35473 11.2795 4.24525C11.2455 4.13576 11.1828 4.03956 11.0993 3.96854C11.0157 3.89751 10.9149 3.85478 10.8094 3.84564L7.7214 3.57715L6.38514 0.34768C6.34258 0.243665 6.27336 0.15532 6.18584 0.0933067C6.09831 0.0312932 5.99621 -0.00173792 5.89187 -0.00180045C5.78753 -0.00186297 5.6854 0.0310458 5.5978 0.0929543C5.51021 0.154863 5.44091 0.243125 5.39824 0.347089L4.06198 3.57715L0.974007 3.84504C0.870256 3.85402 0.771069 3.89544 0.688313 3.96434C0.605558 4.03325 0.542737 4.12673 0.507367 4.23359C0.471997 4.34046 0.465576 4.45619 0.488871 4.56693C0.512166 4.67768 0.564191 4.77875 0.638722 4.85806L2.92126 7.28682L2.11365 11.1023ZM5.89169 2.02717L6.99775 4.70076L7.31625 4.72855H7.31679L9.46824 4.91483L7.69649 6.65583L7.69595 6.65701L7.44516 6.90302L7.53778 7.25607V7.25784L8.21648 9.851L5.89169 8.15909V2.02717Z" fill="#FC8B40"/>
</svg>
